<?xml version="1.0" encoding="UTF-8"?>
<!DOCTYPE svg PUBLIC "-//W3C//DTD SVG 1.1//EN"
    "http://www.w3.org/Graphics/SVG/1.1/DTD/svg11.dtd"><svg xmlns="http://www.w3.org/2000/svg" height="706.8003" stroke-opacity="1" viewBox="0 0 800 707" font-size="1" width="800.0000" xmlns:xlink="http://www.w3.org/1999/xlink" stroke="rgb(0,0,0)" version="1.1"><defs></defs><g stroke-linejoin="miter" stroke-opacity="1.0" fill-opacity="0.0" stroke="rgb(0,0,0)" stroke-width="0.0" fill="rgb(0,0,0)" stroke-linecap="butt" stroke-miterlimit="10.0"><path d="M 278.2609,654.6264 c 0.0000,-28.8149 -23.3591,-52.1739 -52.1739 -52.1739c -28.8149,-0.0000 -52.1739,23.3591 -52.1739 52.1739c -0.0000,28.8149 23.3591,52.1739 52.1739 52.1739c 28.8149,0.0000 52.1739,-23.3591 52.1739 -52.1739Z"/></g><g stroke-linejoin="miter" stroke-opacity="1.0" fill-opacity="1.0" font-size="69.56521739130436px" stroke="rgb(0,0,0)" stroke-width="3.007830380097437" fill="rgb(0,0,0)" stroke-linecap="butt" stroke-miterlimit="10.0"><text dominant-baseline="middle" transform="matrix(1.0000,0.0000,0.0000,1.0000,226.0870,654.6264)" stroke="none" text-anchor="middle">F</text></g><g stroke-linejoin="miter" stroke-opacity="1.0" fill-opacity="0.0" stroke="rgb(0,0,0)" stroke-width="0.0" fill="rgb(0,0,0)" stroke-linecap="butt" stroke-miterlimit="10.0"><path d="M 104.3478,353.4001 c 0.0000,-28.8149 -23.3591,-52.1739 -52.1739 -52.1739c -28.8149,-0.0000 -52.1739,23.3591 -52.1739 52.1739c -0.0000,28.8149 23.3591,52.1739 52.1739 52.1739c 28.8149,0.0000 52.1739,-23.3591 52.1739 -52.1739Z"/></g><g stroke-linejoin="miter" stroke-opacity="1.0" fill-opacity="1.0" font-size="69.56521739130436px" stroke="rgb(0,0,0)" stroke-width="3.007830380097437" fill="rgb(0,0,0)" stroke-linecap="butt" stroke-miterlimit="10.0"><text dominant-baseline="middle" transform="matrix(1.0000,0.0000,0.0000,1.0000,52.1739,353.4001)" stroke="none" text-anchor="middle">E</text></g><g stroke-linejoin="miter" stroke-opacity="1.0" fill-opacity="0.0" stroke="rgb(0,0,0)" stroke-width="0.0" fill="rgb(0,0,0)" stroke-linecap="butt" stroke-miterlimit="10.0"><path d="M 278.2609,52.1739 c 0.0000,-28.8149 -23.3591,-52.1739 -52.1739 -52.1739c -28.8149,-0.0000 -52.1739,23.3591 -52.1739 52.1739c -0.0000,28.8149 23.3591,52.1739 52.1739 52.1739c 28.8149,0.0000 52.1739,-23.3591 52.1739 -52.1739Z"/></g><g stroke-linejoin="miter" stroke-opacity="1.0" fill-opacity="1.0" font-size="69.56521739130436px" stroke="rgb(0,0,0)" stroke-width="3.007830380097437" fill="rgb(0,0,0)" stroke-linecap="butt" stroke-miterlimit="10.0"><text dominant-baseline="middle" transform="matrix(1.0000,0.0000,0.0000,1.0000,226.0870,52.1739)" stroke="none" text-anchor="middle">D</text></g><g stroke-linejoin="miter" stroke-opacity="1.0" fill-opacity="0.0" stroke="rgb(0,0,0)" stroke-width="0.0" fill="rgb(0,0,0)" stroke-linecap="butt" stroke-miterlimit="10.0"><path d="M 626.0870,52.1739 c 0.0000,-28.8149 -23.3591,-52.1739 -52.1739 -52.1739c -28.8149,-0.0000 -52.1739,23.3591 -52.1739 52.1739c -0.0000,28.8149 23.3591,52.1739 52.1739 52.1739c 28.8149,0.0000 52.1739,-23.3591 52.1739 -52.1739Z"/></g><g stroke-linejoin="miter" stroke-opacity="1.0" fill-opacity="1.0" font-size="69.56521739130436px" stroke="rgb(0,0,0)" stroke-width="3.007830380097437" fill="rgb(0,0,0)" stroke-linecap="butt" stroke-miterlimit="10.0"><text dominant-baseline="middle" transform="matrix(1.0000,0.0000,0.0000,1.0000,573.9130,52.1739)" stroke="none" text-anchor="middle">C</text></g><g stroke-linejoin="miter" stroke-opacity="1.0" fill-opacity="0.0" stroke="rgb(0,0,0)" stroke-width="0.0" fill="rgb(0,0,0)" stroke-linecap="butt" stroke-miterlimit="10.0"><path d="M 800.0000,353.4001 c 0.0000,-28.8149 -23.3591,-52.1739 -52.1739 -52.1739c -28.8149,-0.0000 -52.1739,23.3591 -52.1739 52.1739c -0.0000,28.8149 23.3591,52.1739 52.1739 52.1739c 28.8149,0.0000 52.1739,-23.3591 52.1739 -52.1739Z"/></g><g stroke-linejoin="miter" stroke-opacity="1.0" fill-opacity="1.0" font-size="69.56521739130436px" stroke="rgb(0,0,0)" stroke-width="3.007830380097437" fill="rgb(0,0,0)" stroke-linecap="butt" stroke-miterlimit="10.0"><text dominant-baseline="middle" transform="matrix(1.0000,0.0000,0.0000,1.0000,747.8261,353.4001)" stroke="none" text-anchor="middle">B</text></g><g stroke-linejoin="miter" stroke-opacity="1.0" fill-opacity="0.0" stroke="rgb(0,0,0)" stroke-width="0.0" fill="rgb(0,0,0)" stroke-linecap="butt" stroke-miterlimit="10.0"><path d="M 626.0870,654.6264 c 0.0000,-28.8149 -23.3591,-52.1739 -52.1739 -52.1739c -28.8149,-0.0000 -52.1739,23.3591 -52.1739 52.1739c -0.0000,28.8149 23.3591,52.1739 52.1739 52.1739c 28.8149,0.0000 52.1739,-23.3591 52.1739 -52.1739Z"/></g><g stroke-linejoin="miter" stroke-opacity="1.0" fill-opacity="1.0" font-size="69.56521739130436px" stroke="rgb(0,0,0)" stroke-width="3.007830380097437" fill="rgb(0,0,0)" stroke-linecap="butt" stroke-miterlimit="10.0"><text dominant-baseline="middle" transform="matrix(1.0000,0.0000,0.0000,1.0000,573.9130,654.6264)" stroke="none" text-anchor="middle">A</text></g><g stroke-linejoin="miter" stroke-opacity="1.0" fill-opacity="0.0" stroke="rgb(0,0,0)" stroke-width="3.007830380097437" fill="rgb(0,0,0)" stroke-linecap="butt" stroke-miterlimit="10.0"><path d="M 573.9130,602.4525 l 0.0000,-480.7133 "/></g><g stroke-linejoin="miter" stroke-opacity="1.0" fill-opacity="1.0" stroke="rgb(0,0,0)" stroke-width="0.0" fill="rgb(0,0,0)" stroke-linecap="butt" stroke-miterlimit="10.0"></g><g stroke-linejoin="miter" stroke-opacity="1.0" fill-opacity="1.0" stroke="rgb(0,0,0)" stroke-width="0.0" fill="rgb(0,0,0)" stroke-linecap="butt" stroke-miterlimit="10.0"></g><g stroke-linejoin="miter" stroke-opacity="1.0" fill-opacity="1.0" stroke="rgb(0,0,0)" stroke-width="0.0" fill="rgb(0,0,0)" stroke-linecap="butt" stroke-miterlimit="10.0"><path d="M 573.9130,104.3478 l -6.5051,20.0206 l 6.5051,-3.4199 l 6.5051,3.4199 Z"/></g><g stroke-linejoin="miter" stroke-opacity="1.0" fill-opacity="1.0" stroke="rgb(0,0,0)" stroke-width="0.0" fill="rgb(0,0,0)" stroke-linecap="butt" stroke-miterlimit="10.0"><path d="M 573.9130,120.9485 l -0.0000,0.7907 l -1.5039,-0.0000 l 1.5039,-0.7907 l -0.0000,0.7907 l 1.5039,0.0000 Z"/></g><g stroke-linejoin="miter" stroke-opacity="1.0" fill-opacity="0.0" stroke="rgb(0,0,0)" stroke-width="3.007830380097437" fill="rgb(0,0,0)" stroke-linecap="butt" stroke-miterlimit="10.0"><path d="M 600.0043,609.4349 l 113.0348,-195.7820 "/></g><g stroke-linejoin="miter" stroke-opacity="1.0" fill-opacity="1.0" stroke="rgb(0,0,0)" stroke-width="0.0" fill="rgb(0,0,0)" stroke-linecap="butt" stroke-miterlimit="10.0"></g><g stroke-linejoin="miter" stroke-opacity="1.0" fill-opacity="1.0" stroke="rgb(0,0,0)" stroke-width="0.0" fill="rgb(0,0,0)" stroke-linecap="butt" stroke-miterlimit="10.0"></g><g stroke-linejoin="miter" stroke-opacity="1.0" fill-opacity="1.0" stroke="rgb(0,0,0)" stroke-width="0.0" fill="rgb(0,0,0)" stroke-linecap="butt" stroke-miterlimit="10.0"><path d="M 721.7348,398.5916 l -15.6438,14.0858 l 7.3435,0.2908 l 3.9236,6.2143 Z"/></g><g stroke-linejoin="miter" stroke-opacity="1.0" fill-opacity="1.0" stroke="rgb(0,0,0)" stroke-width="0.0" fill="rgb(0,0,0)" stroke-linecap="butt" stroke-miterlimit="10.0"><path d="M 713.4345,412.9682 l -0.3953,0.6847 l -1.3024,-0.7520 l 1.6978,0.0672 l -0.3953,0.6847 l 1.3024,0.7520 Z"/></g></svg>